<svg height="480pt" preserveAspectRatio="xMidYMid meet" viewBox="0 0 600 480" width="600pt" xmlns="http://www.w3.org/2000/svg"><g transform="matrix(.1 0 0 -.1 0 480)"><path d="m3065 3696c-175-46-401-153-634-301-126-79-159-119-40-46 154 93 368 185 505 216 82 20 183 22 223 5 150-62 45-351-266-730-93-112-329-350-436-438l-77-63v255 256h168l167 1 47 67c25 37 85 120 132 185l86 117h-725-725v-45-45h150 150v-45-45h-195-195v-45-45h125 125v-50-50h115 115v-415-415l-91-45c-196-99-390-140-468-98-83 44-101 133-56 268 46 138 169 336 314 502 39 46 71 86 71 90 0 25-250-257-369-416-150-202-240-365-280-511-36-129-25-206 39-263 47-43 84-51 199-45 134 8 361 92 556 206 50 29 72 37 77 29 4-7 8-72 8-144v-133h230 230v309 308l128 110c619 533 1033 1128 973 1398-14 60-58 110-112 125-57 17-168 10-264-14zm-1055-561c0-20-5-25-25-25-25 0-25-1-25-90v-90h-30-30v90c0 89 0 90-25 90-20 0-25 5-25 25 0 25 1 25 80 25s80 0 80-25zm180-20c0-45 0-45 34-45s35 1 38 43c3 37 6 42 28 42h25v-115-115h-25c-23 0-25 4-28 48-3 48-4 48-35 45-30-3-32-6-35-45-3-38-6-43-28-43h-24v115 115h25c23 0 25-4 25-45zm192-42 3-88 32-3 32-3 3 88c3 86 3 88 28 88s25-1 25-92c0-82-3-95-22-114-17-17-32-22-70-21-72 3-83 22-83 138 0 93 0 94 25 94 24 0 24-2 27-87zm272 76c31-15 52-61 38-85-6-11-7-27-1-41 10-26-1-62-25-82-10-8-42-15-79-15l-62-1-3 118-3 117h55c30 0 66-5 80-11zm-526-111c3-15-5-18-52-18-50 0-56 2-56 21 0 18 5 20 52 17 41-2 54-7 56-20z"/><path d="m2577 3104c-18-19-5-34 29-34 28 0 35 3 32 18-3 17-48 29-61 16z"/><path d="m2570 2999c0-15 7-19 36-19 48 0 45 31-3 35-27 2-33-1-33-16z"/><path d="m1310 3175v-45h-105-105v-45-45h105 105v45 45h45 45v45 45h-45-45z"/><path d="m1310 2895v-45h45 45v45 45h-45-45z"/></g></svg>